<svg width="198" height="60" viewBox="0 0 198 60" fill="none" xmlns="http://www.w3.org/2000/svg">
<g filter="url(#filter0_d_1_242)">
<path d="M30.656 16.152C30.656 18.104 30.208 19.896 29.312 21.528C28.416 23.128 27.04 24.424 25.184 25.416C23.328 26.408 21.024 26.904 18.272 26.904H13.184V39H4.976V5.304H18.272C20.96 5.304 23.232 5.768 25.088 6.696C26.944 7.624 28.336 8.904 29.264 10.536C30.192 12.168 30.656 14.04 30.656 16.152ZM17.648 20.376C19.216 20.376 20.384 20.008 21.152 19.272C21.92 18.536 22.304 17.496 22.304 16.152C22.304 14.808 21.92 13.768 21.152 13.032C20.384 12.296 19.216 11.928 17.648 11.928H13.184V20.376H17.648ZM43.1371 3.48V39H34.9291V3.48H43.1371ZM53.2134 9.432C51.7734 9.432 50.5894 9.016 49.6614 8.184C48.7654 7.32 48.3174 6.264 48.3174 5.016C48.3174 3.736 48.7654 2.68 49.6614 1.848C50.5894 0.983997 51.7734 0.551997 53.2134 0.551997C54.6214 0.551997 55.7734 0.983997 56.6694 1.848C57.5974 2.68 58.0614 3.736 58.0614 5.016C58.0614 6.264 57.5974 7.32 56.6694 8.184C55.7734 9.016 54.6214 9.432 53.2134 9.432ZM57.2934 12.216V39H49.0854V12.216H57.2934ZM79.5616 11.928C82.6976 11.928 85.1936 12.952 87.0496 15C88.9376 17.016 89.8816 19.8 89.8816 23.352V39H81.7216V24.456C81.7216 22.664 81.2576 21.272 80.3296 20.28C79.4016 19.288 78.1536 18.792 76.5856 18.792C75.0176 18.792 73.7696 19.288 72.8416 20.28C71.9136 21.272 71.4496 22.664 71.4496 24.456V39H63.2416V12.216H71.4496V15.768C72.2816 14.584 73.4016 13.656 74.8096 12.984C76.2176 12.28 77.8016 11.928 79.5616 11.928Z" fill="black"/>
<path d="M113.965 16.008C114.765 14.76 115.869 13.752 117.277 12.984C118.685 12.216 120.333 11.832 122.221 11.832C124.429 11.832 126.429 12.392 128.221 13.512C130.013 14.632 131.421 16.232 132.445 18.312C133.501 20.392 134.029 22.808 134.029 25.56C134.029 28.312 133.501 30.744 132.445 32.856C131.421 34.936 130.013 36.552 128.221 37.704C126.429 38.824 124.429 39.384 122.221 39.384C120.365 39.384 118.717 39 117.277 38.232C115.869 37.464 114.765 36.472 113.965 35.256V51.768H105.757V12.216H113.965V16.008ZM125.677 25.56C125.677 23.512 125.101 21.912 123.949 20.76C122.829 19.576 121.437 18.984 119.773 18.984C118.141 18.984 116.749 19.576 115.597 20.76C114.477 21.944 113.917 23.56 113.917 25.608C113.917 27.656 114.477 29.272 115.597 30.456C116.749 31.64 118.141 32.232 119.773 32.232C121.405 32.232 122.797 31.64 123.949 30.456C125.101 29.24 125.677 27.608 125.677 25.56ZM146.543 3.48V39H138.335V3.48H146.543ZM156.62 9.432C155.18 9.432 153.996 9.016 153.068 8.184C152.172 7.32 151.724 6.264 151.724 5.016C151.724 3.736 152.172 2.68 153.068 1.848C153.996 0.983997 155.18 0.551997 156.62 0.551997C158.028 0.551997 159.18 0.983997 160.076 1.848C161.004 2.68 161.468 3.736 161.468 5.016C161.468 6.264 161.004 7.32 160.076 8.184C159.18 9.016 158.028 9.432 156.62 9.432ZM160.7 12.216V39H152.492V12.216H160.7ZM182.968 11.928C186.104 11.928 188.6 12.952 190.456 15C192.344 17.016 193.288 19.8 193.288 23.352V39H185.128V24.456C185.128 22.664 184.664 21.272 183.736 20.28C182.808 19.288 181.56 18.792 179.992 18.792C178.424 18.792 177.176 19.288 176.248 20.28C175.32 21.272 174.856 22.664 174.856 24.456V39H166.648V12.216H174.856V15.768C175.688 14.584 176.808 13.656 178.216 12.984C179.624 12.28 181.208 11.928 182.968 11.928Z" fill="#6C63FF"/>
</g>
<defs>
<filter id="filter0_d_1_242" x="0.976013" y="0.552002" width="196.312" height="59.216" filterUnits="userSpaceOnUse" color-interpolation-filters="sRGB">
<feFlood flood-opacity="0" result="BackgroundImageFix"/>
<feColorMatrix in="SourceAlpha" type="matrix" values="0 0 0 0 0 0 0 0 0 0 0 0 0 0 0 0 0 0 127 0" result="hardAlpha"/>
<feOffset dy="4"/>
<feGaussianBlur stdDeviation="2"/>
<feColorMatrix type="matrix" values="0 0 0 0 0 0 0 0 0 0 0 0 0 0 0 0 0 0 0.25 0"/>
<feBlend mode="normal" in2="BackgroundImageFix" result="effect1_dropShadow_1_242"/>
<feBlend mode="normal" in="SourceGraphic" in2="effect1_dropShadow_1_242" result="shape"/>
</filter>
</defs>
</svg>
