<svg width="261" height="78" viewBox="0 0 261 78" fill="none" xmlns="http://www.w3.org/2000/svg">
<g filter="url(#filter0_d_4_35)">
<path d="M39.208 21.536C39.208 24.1387 38.6107 26.528 37.416 28.704C36.2213 30.8373 34.3867 32.5653 31.912 33.888C29.4373 35.2107 26.3653 35.872 22.696 35.872H15.912V52H4.968V7.072H22.696C26.28 7.072 29.3093 7.69066 31.784 8.928C34.2587 10.1653 36.1147 11.872 37.352 14.048C38.5893 16.224 39.208 18.72 39.208 21.536ZM21.864 27.168C23.9547 27.168 25.512 26.6773 26.536 25.696C27.56 24.7147 28.072 23.328 28.072 21.536C28.072 19.744 27.56 18.3573 26.536 17.376C25.512 16.3947 23.9547 15.904 21.864 15.904H15.912V27.168H21.864ZM55.8495 4.64V52H44.9055V4.64H55.8495ZM69.2845 12.576C67.3645 12.576 65.7858 12.0213 64.5485 10.912C63.3538 9.76 62.7565 8.352 62.7565 6.688C62.7565 4.98133 63.3538 3.57333 64.5485 2.464C65.7858 1.312 67.3645 0.735996 69.2845 0.735996C71.1618 0.735996 72.6978 1.312 73.8925 2.464C75.1298 3.57333 75.7485 4.98133 75.7485 6.688C75.7485 8.352 75.1298 9.76 73.8925 10.912C72.6978 12.0213 71.1618 12.576 69.2845 12.576ZM74.7245 16.288V52H63.7805V16.288H74.7245ZM104.416 15.904C108.597 15.904 111.925 17.2693 114.4 20C116.917 22.688 118.176 26.4 118.176 31.136V52H107.296V32.608C107.296 30.2187 106.677 28.3627 105.44 27.04C104.202 25.7173 102.538 25.056 100.448 25.056C98.3568 25.056 96.6928 25.7173 95.4555 27.04C94.2182 28.3627 93.5995 30.2187 93.5995 32.608V52H82.6555V16.288H93.5995V21.024C94.7088 19.4453 96.2022 18.208 98.0795 17.312C99.9568 16.3733 102.069 15.904 104.416 15.904ZM150.287 21.344C151.354 19.68 152.826 18.336 154.703 17.312C156.58 16.288 158.778 15.776 161.295 15.776C164.239 15.776 166.906 16.5227 169.295 18.016C171.684 19.5093 173.562 21.6427 174.927 24.416C176.335 27.1893 177.039 30.4107 177.039 34.08C177.039 37.7493 176.335 40.992 174.927 43.808C173.562 46.5813 171.684 48.736 169.295 50.272C166.906 51.7653 164.239 52.512 161.295 52.512C158.82 52.512 156.623 52 154.703 50.976C152.826 49.952 151.354 48.6293 150.287 47.008V69.024H139.343V16.288H150.287V21.344ZM165.903 34.08C165.903 31.3493 165.135 29.216 163.599 27.68C162.106 26.1013 160.25 25.312 158.031 25.312C155.855 25.312 153.999 26.1013 152.463 27.68C150.97 29.2587 150.223 31.4133 150.223 34.144C150.223 36.8747 150.97 39.0293 152.463 40.608C153.999 42.1867 155.855 42.976 158.031 42.976C160.207 42.976 162.063 42.1867 163.599 40.608C165.135 38.9867 165.903 36.8107 165.903 34.08ZM193.725 4.64V52H182.781V4.64H193.725ZM207.16 12.576C205.24 12.576 203.661 12.0213 202.424 10.912C201.229 9.76 200.632 8.352 200.632 6.688C200.632 4.98133 201.229 3.57333 202.424 2.464C203.661 1.312 205.24 0.735996 207.16 0.735996C209.037 0.735996 210.573 1.312 211.768 2.464C213.005 3.57333 213.624 4.98133 213.624 6.688C213.624 8.352 213.005 9.76 211.768 10.912C210.573 12.0213 209.037 12.576 207.16 12.576ZM212.6 16.288V52H201.656V16.288H212.6ZM242.291 15.904C246.472 15.904 249.8 17.2693 252.275 20C254.792 22.688 256.051 26.4 256.051 31.136V52H245.171V32.608C245.171 30.2187 244.552 28.3627 243.315 27.04C242.077 25.7173 240.413 25.056 238.323 25.056C236.232 25.056 234.568 25.7173 233.331 27.04C232.093 28.3627 231.475 30.2187 231.475 32.608V52H220.531V16.288H231.475V21.024C232.584 19.4453 234.077 18.208 235.955 17.312C237.832 16.3733 239.944 15.904 242.291 15.904Z" fill="black"/>
</g>
<defs>
<filter id="filter0_d_4_35" x="0.967987" y="0.735962" width="259.082" height="76.2881" filterUnits="userSpaceOnUse" color-interpolation-filters="sRGB">
<feFlood flood-opacity="0" result="BackgroundImageFix"/>
<feColorMatrix in="SourceAlpha" type="matrix" values="0 0 0 0 0 0 0 0 0 0 0 0 0 0 0 0 0 0 127 0" result="hardAlpha"/>
<feOffset dy="4"/>
<feGaussianBlur stdDeviation="2"/>
<feColorMatrix type="matrix" values="0 0 0 0 0 0 0 0 0 0 0 0 0 0 0 0 0 0 0.25 0"/>
<feBlend mode="normal" in2="BackgroundImageFix" result="effect1_dropShadow_4_35"/>
<feBlend mode="normal" in="SourceGraphic" in2="effect1_dropShadow_4_35" result="shape"/>
</filter>
</defs>
</svg>
